<?xml version="1.0" standalone="no"?>
<!DOCTYPE svg PUBLIC "-//W3C//DTD SVG 20010904//EN"
 "http://www.w3.org/TR/2001/REC-SVG-20010904/DTD/svg10.dtd">
<svg version="1.0" xmlns="http://www.w3.org/2000/svg"
 width="700.000000pt" height="700.000000pt" viewBox="0 0 700.000000 700.000000"
 preserveAspectRatio="xMidYMid meet">
<metadata>
Created by potrace 1.14, written by Peter Selinger 2001-2017
</metadata>
<g transform="translate(0.000000,700.000000) scale(0.100000,-0.100000)"
fill="#000000" stroke="none">
<path d="M1350 6409 c-89 -14 -113 -20 -182 -44 -301 -105 -521 -370 -572
-687 -10 -59 -12 -566 -11 -2210 l1 -2133 23 -84 c87 -326 327 -563 649 -643
l87 -22 2160 0 c2037 0 2164 1 2225 17 209 57 351 144 477 290 101 118 175
278 200 437 4 25 7 801 8 1725 l0 1680 -24 50 c-20 39 -189 215 -785 813 -634
636 -770 767 -816 790 l-55 27 -1670 0 c-918 1 -1690 -2 -1715 -6z m400 -1181
c0 -335 0 -609 -1 -610 -1 -2 10 -29 24 -60 33 -75 75 -119 145 -154 l57 -28
1225 0 c1180 -1 1227 0 1277 18 65 24 124 79 159 148 36 70 38 169 6 242 -29
64 -99 130 -164 154 -51 19 -84 20 -1033 21 -539 0 -1010 1 -1046 1 l-65 0 0
433 c0 237 3 434 7 437 5 4 2140 5 2196 1 7 -1 300 -289 652 -642 573 -572
641 -643 642 -672 5 -181 0 -3091 -5 -3119 -16 -89 -98 -182 -187 -214 -38
-13 -230 -21 -366 -15 l-23 1 -2 1057 -3 1058 -23 47 c-29 59 -83 113 -142
141 l-45 22 -1515 3 c-1325 2 -1520 0 -1566 -13 -61 -18 -137 -81 -174 -146
l-25 -44 -3 -1060 c-1 -594 -6 -1062 -11 -1065 -5 -3 -83 -4 -173 -3 -181 2
-222 11 -290 64 -45 36 -79 86 -98 144 -11 33 -13 428 -13 2125 0 1944 1 2088
17 2137 33 99 127 176 232 191 26 4 112 7 191 7 l143 0 0 -607z m2916 -3185
l0 -873 -30 -1 c-40 -1 -2277 -1 -2292 0 -7 1 -10 261 -9 874 1 479 3 872 4
872 0 1 524 1 1164 1 l1163 0 0 -873z"/>
</g>
</svg>
